# xmcd
#
# Track frame offsets:
#	150
#	20036
#	39987
#	58143
#	77594
#	97694
#	115167
#	136105
#	152817
#	171218
#	193739
#	211678
#	234489
#	252524
#
# Disc length: 3674 seconds
#
# Revision: 3
# Processed by: cddbd v1.5.2PL0 Copyright (c) Steve Scherf et al.
# Submitted via: EasyCDDAExtractor 16.0.6.1
#
DISCID=b10e580e
DTITLE=The Corrs - R-386 Talk On Corners
DYEAR=1900
DGENRE=Blues
TTITLE0=Only When I Sleep
TTITLE1=When He's Not Around
TTITLE2=Dreams
TTITLE3=What Can I Do
TTITLE4=I Never Loved You Anyway
TTITLE5=So Young
TTITLE6=Don't Say You Love Me
TTITLE7=Love Gives Love Takes
TTITLE8=Hopelessly Addicted
TTITLE9=Paddy McCarthy
TTITLE10=Intimacy
TTITLE11=Queen Of Hollywood
TTITLE12=No Good For Me
TTITLE13=Little Wing
EXTD=Brought to you by:\n\nJustin M. Evans\nEvans WebDesigns\nevanswebdesigns@
EXTD=biogate.com\nAIM: evanswebs
EXTT0=
EXTT1=
EXTT2=
EXTT3=
EXTT4=
EXTT5=
EXTT6=
EXTT7=
EXTT8=
EXTT9=
EXTT10=
EXTT11=
EXTT12=
EXTT13=
PLAYORDER=
